<svg xmlns="http://www.w3.org/2000/svg" height="20" width="20"><path d="m13.271 11.146-1.292-1.292q.083-.792-.479-1.364-.562-.573-1.354-.49L8.854 6.708q.271-.104.563-.156Q9.708 6.5 10 6.5q1.458 0 2.479 1.021Q13.5 8.542 13.5 10q0 .292-.052.583-.052.292-.177.563Zm2.771 2.771-1.084-1.084q.75-.583 1.365-1.281T17.354 10q-1.021-2.104-3.01-3.302Q12.354 5.5 10 5.5q-.542 0-1.062.062-.521.063-1.021.209L6.708 4.562q.792-.312 1.615-.437T10 4q2.979 0 5.448 1.615Q17.917 7.229 19 10q-.458 1.188-1.219 2.156-.76.969-1.739 1.761ZM16 18.125l-2.708-2.708q-.792.291-1.615.437Q10.854 16 10 16q-2.979 0-5.448-1.615Q2.083 12.771 1 10q.458-1.188 1.208-2.167.75-.979 1.75-1.771L1.875 3.979l1.063-1.062 14.124 14.145ZM5.021 7.146q-.729.583-1.354 1.281-.625.698-1.021 1.573 1.021 2.104 3.01 3.302Q7.646 14.5 10 14.5q.542 0 1.062-.073.521-.073 1.042-.198l-.937-.937q-.292.104-.584.156-.291.052-.583.052-1.458 0-2.479-1.021Q6.5 11.458 6.5 10q0-.292.073-.583.073-.292.135-.584ZM11 9Zm-2 2Z" fill="#eeeeee"/></svg>